<mxfile host="app.diagrams.net" agent="Mozilla/5.0 (Windows NT 10.0; Win64; x64) AppleWebKit/537.36 (KHTML, like Gecko) Chrome/131.0.0.0 Safari/537.36" version="26.0.4">
  <diagram id="442032df-d988-056a-26d7-d56c65a4f7fd" name="Page-1">
    <mxGraphModel dx="1178" dy="802" grid="1" gridSize="10" guides="1" tooltips="1" connect="1" arrows="1" fold="1" page="1" pageScale="1" pageWidth="827" pageHeight="1169" math="0" shadow="0">
      <root>
        <mxCell id="0" />
        <mxCell id="1" parent="0" />
        <mxCell id="2" value="&lt;b&gt;Student&lt;/b&gt;" style="html=1;fillColor=#fad9d5;strokeColor=#ae4132;" parent="1" vertex="1">
          <mxGeometry x="150" y="90" width="110" height="50" as="geometry" />
        </mxCell>
        <mxCell id="3" value="&lt;b&gt;LMS&lt;/b&gt;" style="html=1;fillColor=#fad9d5;strokeColor=#ae4132;" parent="1" vertex="1">
          <mxGeometry x="350" y="90" width="110" height="50" as="geometry" />
        </mxCell>
        <mxCell id="4" value="&lt;b&gt;Firebase&lt;/b&gt;" style="html=1;fillColor=#fad9d5;strokeColor=#ae4132;" parent="1" vertex="1">
          <mxGeometry x="550" y="90" width="110" height="50" as="geometry" />
        </mxCell>
        <mxCell id="5" value="" style="html=1;points=[];perimeter=orthogonalPerimeter;" parent="1" vertex="1">
          <mxGeometry x="200" y="200" width="10" height="680" as="geometry" />
        </mxCell>
        <mxCell id="7" value="" style="endArrow=none;dashed=1;html=1;entryX=0.5;entryY=1;exitX=0.5;exitY=-0.002;exitPerimeter=0;" parent="1" source="5" target="2" edge="1">
          <mxGeometry width="50" height="50" relative="1" as="geometry">
            <mxPoint x="80" y="270" as="sourcePoint" />
            <mxPoint x="125" y="260" as="targetPoint" />
          </mxGeometry>
        </mxCell>
        <mxCell id="9" value="" style="endArrow=none;dashed=1;html=1;entryX=0.5;entryY=1;" parent="1" source="17" target="4" edge="1">
          <mxGeometry width="50" height="50" relative="1" as="geometry">
            <mxPoint x="600" y="642" as="sourcePoint" />
            <mxPoint x="125" y="300" as="targetPoint" />
          </mxGeometry>
        </mxCell>
        <mxCell id="10" value="" style="endArrow=none;dashed=1;html=1;entryX=0.5;entryY=1;" parent="1" source="15" target="3" edge="1">
          <mxGeometry width="50" height="50" relative="1" as="geometry">
            <mxPoint x="405" y="640" as="sourcePoint" />
            <mxPoint x="135" y="310" as="targetPoint" />
          </mxGeometry>
        </mxCell>
        <mxCell id="11" value="Registration" style="html=1;verticalAlign=bottom;endArrow=block;entryX=-0.333;entryY=0.012;entryDx=0;entryDy=0;entryPerimeter=0;" parent="1" target="15" edge="1">
          <mxGeometry width="80" relative="1" as="geometry">
            <mxPoint x="212" y="211" as="sourcePoint" />
            <mxPoint x="396" y="176.66668701171875" as="targetPoint" />
          </mxGeometry>
        </mxCell>
        <mxCell id="15" value="" style="html=1;points=[];perimeter=orthogonalPerimeter;" parent="1" vertex="1">
          <mxGeometry x="400" y="200" width="10" height="680" as="geometry" />
        </mxCell>
        <mxCell id="17" value="" style="html=1;points=[];perimeter=orthogonalPerimeter;" parent="1" vertex="1">
          <mxGeometry x="600" y="200" width="10" height="680" as="geometry" />
        </mxCell>
        <mxCell id="23" value="Send Request" style="html=1;verticalAlign=bottom;endArrow=block;entryX=-0.133;entryY=0.016;entryPerimeter=0;entryDx=0;entryDy=0;" parent="1" target="17" edge="1">
          <mxGeometry width="80" relative="1" as="geometry">
            <mxPoint x="410" y="212" as="sourcePoint" />
            <mxPoint x="591.3299999999999" y="212.24" as="targetPoint" />
          </mxGeometry>
        </mxCell>
        <mxCell id="24" value="Login" style="html=1;verticalAlign=bottom;endArrow=block;entryX=0;entryY=0.131;entryPerimeter=0;entryDx=0;entryDy=0;" parent="1" target="15" edge="1">
          <mxGeometry width="80" relative="1" as="geometry">
            <mxPoint x="210" y="290" as="sourcePoint" />
            <mxPoint x="394" y="290" as="targetPoint" />
          </mxGeometry>
        </mxCell>
        <mxCell id="25" value="check Login" style="html=1;verticalAlign=bottom;endArrow=block;" parent="1" edge="1">
          <mxGeometry x="0.0471" width="80" relative="1" as="geometry">
            <mxPoint x="410" y="300" as="sourcePoint" />
            <mxPoint x="601" y="300" as="targetPoint" />
            <mxPoint as="offset" />
          </mxGeometry>
        </mxCell>
        <mxCell id="26" value="created successfully" style="html=1;verticalAlign=bottom;endArrow=open;dashed=1;endSize=8;" parent="1" edge="1">
          <mxGeometry x="0.0639" y="19" relative="1" as="geometry">
            <mxPoint x="400" y="240" as="sourcePoint" />
            <mxPoint x="212" y="241" as="targetPoint" />
            <Array as="points">
              <mxPoint x="360" y="240" />
              <mxPoint x="320" y="241" />
            </Array>
            <mxPoint as="offset" />
          </mxGeometry>
        </mxCell>
        <mxCell id="27" value="Get Acknowledgement" style="html=1;verticalAlign=bottom;endArrow=open;dashed=1;endSize=8;entryX=1.2;entryY=0.069;entryPerimeter=0;" parent="1" edge="1">
          <mxGeometry x="0.0639" y="19" relative="1" as="geometry">
            <mxPoint x="600" y="230" as="sourcePoint" />
            <mxPoint x="412" y="231" as="targetPoint" />
            <Array as="points">
              <mxPoint x="520" y="231" />
            </Array>
            <mxPoint as="offset" />
          </mxGeometry>
        </mxCell>
        <mxCell id="28" value="success" style="html=1;verticalAlign=bottom;endArrow=open;dashed=1;endSize=8;entryX=1.2;entryY=0.069;entryPerimeter=0;" parent="1" edge="1">
          <mxGeometry x="0.0639" y="19" relative="1" as="geometry">
            <mxPoint x="598" y="330" as="sourcePoint" />
            <mxPoint x="410" y="331" as="targetPoint" />
            <Array as="points">
              <mxPoint x="518" y="331" />
            </Array>
            <mxPoint as="offset" />
          </mxGeometry>
        </mxCell>
        <mxCell id="34" value="Profile" style="html=1;verticalAlign=bottom;endArrow=block;entryX=-0.4;entryY=0.2;entryPerimeter=0;" parent="1" edge="1">
          <mxGeometry width="80" relative="1" as="geometry">
            <mxPoint x="210" y="370" as="sourcePoint" />
            <mxPoint x="394" y="370" as="targetPoint" />
          </mxGeometry>
        </mxCell>
        <mxCell id="35" value="Send Request" style="html=1;verticalAlign=bottom;endArrow=block;" parent="1" edge="1">
          <mxGeometry x="-0.2903" y="10" width="80" relative="1" as="geometry">
            <mxPoint x="410" y="380" as="sourcePoint" />
            <mxPoint x="601" y="380" as="targetPoint" />
            <mxPoint as="offset" />
          </mxGeometry>
        </mxCell>
        <mxCell id="36" value="Get Acknowledgement" style="html=1;verticalAlign=bottom;endArrow=open;dashed=1;endSize=8;entryX=1.2;entryY=0.069;entryPerimeter=0;" parent="1" edge="1">
          <mxGeometry x="-0.0425" y="4" relative="1" as="geometry">
            <mxPoint x="598" y="400" as="sourcePoint" />
            <mxPoint x="410" y="401" as="targetPoint" />
            <Array as="points">
              <mxPoint x="518" y="401" />
            </Array>
            <mxPoint as="offset" />
          </mxGeometry>
        </mxCell>
        <mxCell id="40" value="View course" style="html=1;verticalAlign=bottom;endArrow=block;entryX=-0.4;entryY=0.2;entryPerimeter=0;exitX=1.067;exitY=0.352;exitDx=0;exitDy=0;exitPerimeter=0;" parent="1" source="5" edge="1">
          <mxGeometry width="80" relative="1" as="geometry">
            <mxPoint x="216" y="440" as="sourcePoint" />
            <mxPoint x="400" y="440" as="targetPoint" />
          </mxGeometry>
        </mxCell>
        <mxCell id="41" value="Sent Request" style="html=1;verticalAlign=bottom;endArrow=block;entryX=0.133;entryY=0.369;entryPerimeter=0;entryDx=0;entryDy=0;" parent="1" target="17" edge="1">
          <mxGeometry width="80" relative="1" as="geometry">
            <mxPoint x="410" y="450" as="sourcePoint" />
            <mxPoint x="594" y="450" as="targetPoint" />
          </mxGeometry>
        </mxCell>
        <mxCell id="42" value="&amp;nbsp;get Acknowledgment" style="html=1;verticalAlign=bottom;endArrow=open;dashed=1;endSize=8;entryX=1.2;entryY=0.069;entryPerimeter=0;" parent="1" edge="1">
          <mxGeometry x="0.0639" y="19" relative="1" as="geometry">
            <mxPoint x="598" y="460" as="sourcePoint" />
            <mxPoint x="410" y="461" as="targetPoint" />
            <Array as="points">
              <mxPoint x="518" y="461" />
            </Array>
            <mxPoint as="offset" />
          </mxGeometry>
        </mxCell>
        <mxCell id="L1VeUNWr_6vqhDy3iDXo-43" value="send request" style="html=1;verticalAlign=bottom;endArrow=block;entryX=-0.067;entryY=0.5;entryPerimeter=0;entryDx=0;entryDy=0;" parent="1" edge="1">
          <mxGeometry x="-0.0543" y="2" width="80" relative="1" as="geometry">
            <mxPoint x="410" y="649.5" as="sourcePoint" />
            <mxPoint x="599.3299999999999" y="650" as="targetPoint" />
            <mxPoint as="offset" />
          </mxGeometry>
        </mxCell>
        <mxCell id="L1VeUNWr_6vqhDy3iDXo-44" value="send request" style="html=1;verticalAlign=bottom;endArrow=block;entryX=0.1;entryY=0.318;entryPerimeter=0;entryDx=0;entryDy=0;" parent="1" edge="1">
          <mxGeometry width="80" relative="1" as="geometry">
            <mxPoint x="409" y="579.51" as="sourcePoint" />
            <mxPoint x="600" y="579.5" as="targetPoint" />
          </mxGeometry>
        </mxCell>
        <mxCell id="L1VeUNWr_6vqhDy3iDXo-45" value="View Posts" style="html=1;verticalAlign=bottom;endArrow=block;entryX=-0.1;entryY=0.182;entryPerimeter=0;entryDx=0;entryDy=0;" parent="1" edge="1">
          <mxGeometry x="-0.0476" width="80" relative="1" as="geometry">
            <mxPoint x="210" y="710" as="sourcePoint" />
            <mxPoint x="399" y="710.01" as="targetPoint" />
            <Array as="points">
              <mxPoint x="309" y="710" />
            </Array>
            <mxPoint as="offset" />
          </mxGeometry>
        </mxCell>
        <mxCell id="L1VeUNWr_6vqhDy3iDXo-46" value="view grades" style="html=1;verticalAlign=bottom;endArrow=block;entryX=-0.4;entryY=0.2;entryPerimeter=0;" parent="1" edge="1">
          <mxGeometry width="80" relative="1" as="geometry">
            <mxPoint x="210" y="640" as="sourcePoint" />
            <mxPoint x="400" y="640" as="targetPoint" />
          </mxGeometry>
        </mxCell>
        <mxCell id="L1VeUNWr_6vqhDy3iDXo-47" value="Assignments and submit" style="html=1;verticalAlign=bottom;endArrow=block;entryX=-0.1;entryY=0.318;entryDx=0;entryDy=0;entryPerimeter=0;" parent="1" edge="1">
          <mxGeometry width="80" relative="1" as="geometry">
            <mxPoint x="210" y="570" as="sourcePoint" />
            <mxPoint x="399" y="569.99" as="targetPoint" />
          </mxGeometry>
        </mxCell>
        <mxCell id="L1VeUNWr_6vqhDy3iDXo-68" value="get acknowledgement" style="html=1;verticalAlign=bottom;endArrow=open;dashed=1;endSize=8;entryX=1.2;entryY=0.069;entryPerimeter=0;" parent="1" edge="1">
          <mxGeometry x="0.0639" y="19" relative="1" as="geometry">
            <mxPoint x="598" y="600" as="sourcePoint" />
            <mxPoint x="410" y="601" as="targetPoint" />
            <Array as="points">
              <mxPoint x="518" y="601" />
            </Array>
            <mxPoint as="offset" />
          </mxGeometry>
        </mxCell>
        <mxCell id="L1VeUNWr_6vqhDy3iDXo-73" value="get acknowledgement" style="html=1;verticalAlign=bottom;endArrow=open;dashed=1;endSize=8;entryX=1.2;entryY=0.069;entryPerimeter=0;" parent="1" edge="1">
          <mxGeometry x="0.0639" y="19" relative="1" as="geometry">
            <mxPoint x="598" y="860" as="sourcePoint" />
            <mxPoint x="410" y="861" as="targetPoint" />
            <Array as="points">
              <mxPoint x="518" y="861" />
            </Array>
            <mxPoint as="offset" />
          </mxGeometry>
        </mxCell>
        <mxCell id="L1VeUNWr_6vqhDy3iDXo-74" value="get acknowledgement" style="html=1;verticalAlign=bottom;endArrow=open;dashed=1;endSize=8;entryX=1.2;entryY=0.069;entryPerimeter=0;" parent="1" edge="1">
          <mxGeometry x="0.0639" y="19" relative="1" as="geometry">
            <mxPoint x="598" y="730" as="sourcePoint" />
            <mxPoint x="410" y="731" as="targetPoint" />
            <Array as="points">
              <mxPoint x="518" y="731" />
            </Array>
            <mxPoint as="offset" />
          </mxGeometry>
        </mxCell>
        <mxCell id="L1VeUNWr_6vqhDy3iDXo-75" value="get acknowledgement" style="html=1;verticalAlign=bottom;endArrow=open;dashed=1;endSize=8;entryX=1.2;entryY=0.069;entryPerimeter=0;" parent="1" edge="1">
          <mxGeometry x="0.0639" y="19" relative="1" as="geometry">
            <mxPoint x="598" y="660" as="sourcePoint" />
            <mxPoint x="410" y="661" as="targetPoint" />
            <Array as="points">
              <mxPoint x="518" y="661" />
            </Array>
            <mxPoint as="offset" />
          </mxGeometry>
        </mxCell>
        <mxCell id="L1VeUNWr_6vqhDy3iDXo-76" value="send request" style="html=1;verticalAlign=bottom;endArrow=block;entryX=-0.2;entryY=0.461;entryPerimeter=0;entryDx=0;entryDy=0;" parent="1" edge="1">
          <mxGeometry width="80" relative="1" as="geometry">
            <mxPoint x="412" y="781.15" as="sourcePoint" />
            <mxPoint x="600" y="779.995" as="targetPoint" />
          </mxGeometry>
        </mxCell>
        <mxCell id="L1VeUNWr_6vqhDy3iDXo-77" value="Logout" style="html=1;verticalAlign=bottom;endArrow=block;entryX=0;entryY=0.182;entryPerimeter=0;entryDx=0;entryDy=0;" parent="1" edge="1">
          <mxGeometry width="80" relative="1" as="geometry">
            <mxPoint x="210" y="840" as="sourcePoint" />
            <mxPoint x="400" y="840.01" as="targetPoint" />
          </mxGeometry>
        </mxCell>
        <mxCell id="L1VeUNWr_6vqhDy3iDXo-78" value="send request" style="html=1;verticalAlign=bottom;endArrow=block;entryX=-0.1;entryY=0.173;entryPerimeter=0;entryDx=0;entryDy=0;" parent="1" edge="1">
          <mxGeometry width="80" relative="1" as="geometry">
            <mxPoint x="410" y="718.99" as="sourcePoint" />
            <mxPoint x="599" y="721.0050000000001" as="targetPoint" />
          </mxGeometry>
        </mxCell>
        <mxCell id="L1VeUNWr_6vqhDy3iDXo-82" value="send request" style="html=1;verticalAlign=bottom;endArrow=block;entryX=0;entryY=0.409;entryDx=0;entryDy=0;entryPerimeter=0;" parent="1" edge="1">
          <mxGeometry width="80" relative="1" as="geometry">
            <mxPoint x="410" y="850" as="sourcePoint" />
            <mxPoint x="600" y="849.9949999999999" as="targetPoint" />
          </mxGeometry>
        </mxCell>
        <mxCell id="L1VeUNWr_6vqhDy3iDXo-83" value="add comment to post" style="html=1;verticalAlign=bottom;endArrow=block;entryX=-0.1;entryY=0.182;entryPerimeter=0;entryDx=0;entryDy=0;" parent="1" edge="1">
          <mxGeometry width="80" relative="1" as="geometry">
            <mxPoint x="210" y="770" as="sourcePoint" />
            <mxPoint x="399" y="770.01" as="targetPoint" />
          </mxGeometry>
        </mxCell>
        <mxCell id="L1VeUNWr_6vqhDy3iDXo-84" value="get acknowledgement" style="html=1;verticalAlign=bottom;endArrow=open;dashed=1;endSize=8;entryX=1.2;entryY=0.069;entryPerimeter=0;" parent="1" edge="1">
          <mxGeometry x="0.0639" y="19" relative="1" as="geometry">
            <mxPoint x="598" y="790" as="sourcePoint" />
            <mxPoint x="410" y="791" as="targetPoint" />
            <Array as="points">
              <mxPoint x="518" y="791" />
            </Array>
            <mxPoint as="offset" />
          </mxGeometry>
        </mxCell>
        <mxCell id="r-Ig4kbvFs-6LBJUwLyk-44" value="successfully session ended" style="html=1;verticalAlign=bottom;endArrow=open;dashed=1;endSize=8;entryX=1.2;entryY=0.069;entryPerimeter=0;" parent="1" edge="1">
          <mxGeometry x="0.0639" y="19" relative="1" as="geometry">
            <mxPoint x="398" y="870" as="sourcePoint" />
            <mxPoint x="210" y="871" as="targetPoint" />
            <Array as="points">
              <mxPoint x="318" y="871" />
            </Array>
            <mxPoint as="offset" />
          </mxGeometry>
        </mxCell>
        <mxCell id="gzzx9XnLVbFwJI5hhew1-42" value="successfully Login" style="html=1;verticalAlign=bottom;endArrow=open;dashed=1;endSize=8;" parent="1" edge="1">
          <mxGeometry x="0.0426" y="-5" relative="1" as="geometry">
            <mxPoint x="400" y="340" as="sourcePoint" />
            <mxPoint x="212" y="341" as="targetPoint" />
            <Array as="points">
              <mxPoint x="320" y="341" />
            </Array>
            <mxPoint as="offset" />
          </mxGeometry>
        </mxCell>
        <mxCell id="gzzx9XnLVbFwJI5hhew1-45" value="List Displayed" style="html=1;verticalAlign=bottom;endArrow=open;dashed=1;endSize=8;" parent="1" edge="1">
          <mxGeometry x="0.0639" y="-11" relative="1" as="geometry">
            <mxPoint x="398" y="470" as="sourcePoint" />
            <mxPoint x="210" y="471" as="targetPoint" />
            <Array as="points">
              <mxPoint x="318" y="471" />
            </Array>
            <mxPoint as="offset" />
          </mxGeometry>
        </mxCell>
        <mxCell id="gzzx9XnLVbFwJI5hhew1-46" value="&amp;nbsp;uploaded successfully" style="html=1;verticalAlign=bottom;endArrow=open;dashed=1;endSize=8;" parent="1" edge="1">
          <mxGeometry x="0.0639" y="19" relative="1" as="geometry">
            <mxPoint x="398" y="607.5" as="sourcePoint" />
            <mxPoint x="210" y="608.5" as="targetPoint" />
            <Array as="points">
              <mxPoint x="318" y="608.5" />
            </Array>
            <mxPoint as="offset" />
          </mxGeometry>
        </mxCell>
        <mxCell id="gzzx9XnLVbFwJI5hhew1-47" value="Results will be displayed" style="html=1;verticalAlign=bottom;endArrow=open;dashed=1;endSize=8;" parent="1" edge="1">
          <mxGeometry x="0.0639" y="19" relative="1" as="geometry">
            <mxPoint x="398" y="670" as="sourcePoint" />
            <mxPoint x="210" y="671" as="targetPoint" />
            <Array as="points">
              <mxPoint x="318" y="671" />
            </Array>
            <mxPoint as="offset" />
          </mxGeometry>
        </mxCell>
        <mxCell id="5NTeCNyHkE4JNZhLnlM2-42" value="Comment displayed" style="html=1;verticalAlign=bottom;endArrow=open;dashed=1;endSize=8;entryX=1.2;entryY=0.069;entryPerimeter=0;" parent="1" edge="1">
          <mxGeometry x="0.0639" y="19" relative="1" as="geometry">
            <mxPoint x="398" y="800" as="sourcePoint" />
            <mxPoint x="210" y="801" as="targetPoint" />
            <Array as="points">
              <mxPoint x="318" y="801" />
            </Array>
            <mxPoint as="offset" />
          </mxGeometry>
        </mxCell>
        <mxCell id="5NTeCNyHkE4JNZhLnlM2-44" value="Posts Displayed" style="html=1;verticalAlign=bottom;endArrow=open;dashed=1;endSize=8;entryX=1.2;entryY=0.069;entryPerimeter=0;" parent="1" edge="1">
          <mxGeometry x="0.149" y="-1" relative="1" as="geometry">
            <mxPoint x="398" y="740" as="sourcePoint" />
            <mxPoint x="210" y="741" as="targetPoint" />
            <Array as="points">
              <mxPoint x="318" y="741" />
            </Array>
            <mxPoint as="offset" />
          </mxGeometry>
        </mxCell>
        <mxCell id="5NTeCNyHkE4JNZhLnlM2-45" value="profile displayed" style="html=1;verticalAlign=bottom;endArrow=open;dashed=1;endSize=8;entryX=1.2;entryY=0.069;entryPerimeter=0;" parent="1" edge="1">
          <mxGeometry x="-0.0425" y="-11" relative="1" as="geometry">
            <mxPoint x="400" y="410" as="sourcePoint" />
            <mxPoint x="212" y="411" as="targetPoint" />
            <Array as="points">
              <mxPoint x="320" y="411" />
            </Array>
            <mxPoint as="offset" />
          </mxGeometry>
        </mxCell>
        <mxCell id="5NTeCNyHkE4JNZhLnlM2-46" value="Enroll course" style="html=1;verticalAlign=bottom;endArrow=block;entryX=-0.4;entryY=0.2;entryPerimeter=0;exitX=1.067;exitY=0.352;exitDx=0;exitDy=0;exitPerimeter=0;" parent="1" edge="1">
          <mxGeometry width="80" relative="1" as="geometry">
            <mxPoint x="211" y="500" as="sourcePoint" />
            <mxPoint x="400" y="501" as="targetPoint" />
          </mxGeometry>
        </mxCell>
        <mxCell id="5NTeCNyHkE4JNZhLnlM2-47" value="Sent Request" style="html=1;verticalAlign=bottom;endArrow=block;entryX=0.133;entryY=0.369;entryPerimeter=0;entryDx=0;entryDy=0;" parent="1" edge="1">
          <mxGeometry width="80" relative="1" as="geometry">
            <mxPoint x="410" y="511" as="sourcePoint" />
            <mxPoint x="601" y="512" as="targetPoint" />
          </mxGeometry>
        </mxCell>
        <mxCell id="5NTeCNyHkE4JNZhLnlM2-48" value="&amp;nbsp;get Acknowledgment" style="html=1;verticalAlign=bottom;endArrow=open;dashed=1;endSize=8;entryX=1.2;entryY=0.069;entryPerimeter=0;" parent="1" edge="1">
          <mxGeometry x="0.0639" y="19" relative="1" as="geometry">
            <mxPoint x="598" y="521" as="sourcePoint" />
            <mxPoint x="410" y="522" as="targetPoint" />
            <Array as="points">
              <mxPoint x="518" y="522" />
            </Array>
            <mxPoint as="offset" />
          </mxGeometry>
        </mxCell>
        <mxCell id="5NTeCNyHkE4JNZhLnlM2-49" value="Course enrolled" style="html=1;verticalAlign=bottom;endArrow=open;dashed=1;endSize=8;" parent="1" edge="1">
          <mxGeometry x="0.0426" relative="1" as="geometry">
            <mxPoint x="398" y="531" as="sourcePoint" />
            <mxPoint x="210" y="532" as="targetPoint" />
            <Array as="points">
              <mxPoint x="318" y="532" />
            </Array>
            <mxPoint as="offset" />
          </mxGeometry>
        </mxCell>
      </root>
    </mxGraphModel>
  </diagram>
</mxfile>
